# xmcd CD database file
#
# Track frame offsets:
#	150
#	16091
#	34991
#	54116
#	71372
#	89855
#	113849
#	128748
#	153459
#	169787
#	194062
#	209239
#	230399
#	253022
#	276630
#	291721
#	306758
#
# Disc length: 4410 seconds
#
# Revision: 0
# Processed by: cddbd v1.5.2PL0 Copyright (c) Steve Scherf et al.
# Submitted via: CDex 1.51
#
DISCID=09113811
DTITLE=Vari - Buddha Bar XI Vol 01
DYEAR=2009
DGENRE=New Age
TTITLE0=Niyaz-Iman
TTITLE1=The Bombay Dub Orchestra-Journey
TTITLE2=Riccardo Eberspacher-Satira
TTITLE3=Ayoe Angelica-Dr Jekyll
TTITLE4=Christos Stylanou feat Maria Latsinou-Smell of roses
TTITLE5=Carlos Campos and Ravin-Kiyamah
TTITLE6=Nitin Sawhney feat Ojos de Brujo-Shadowland
TTITLE7=Mathiue and Florzinho-Maha Amba
TTITLE8=Astyplaz-Zaira
TTITLE9=Sarma-Falling stars
TTITLE10=DJ Disse and Batina Bager feat Fred Astaire-Cheek to cheek
TTITLE11=Sunst Blvd-Loving you
TTITLE12=Angel tears-Purple orchid
TTITLE13=Woolfy vs Projetions-We were there
TTITLE14=Nina and Chris present Zeep-Agua
TTITLE15=Serafim Tsotsonis-Smell 2
TTITLE16=Mlle Caro and Frank Garcia-Mon anga
EXTD=YEAR: 2009
EXTT0=
EXTT1=
EXTT2=
EXTT3=
EXTT4=
EXTT5=
EXTT6=
EXTT7=
EXTT8=
EXTT9=
EXTT10=
EXTT11=
EXTT12=
EXTT13=
EXTT14=
EXTT15=
EXTT16=
PLAYORDER=
